# xmcd
#
# Track frame offsets:
#	150
#	19020
#	44713
#	71288
#	91506
#	110066
#	137958
#
# Disc length: 2127 seconds
#
# Revision: 1
# Processed by: cddbd v1.5.2PL0 Copyright (c) Steve Scherf et al.
# Submitted via: audiograbber 1.83.01
#
DISCID=5a084d07
DTITLE=Rahsaan Roland Kirk - Here comes the Whistleman
DYEAR=1967
DGENRE=Jazz
TTITLE0=Roots
TTITLE1=Here Comes The Whistleman
TTITLE2=I Wishes on The Moon
TTITLE3=Making Love After Hours
TTITLE4=Yesterdays
TTITLE5=Aluminium Babe
TTITLE6=Step Right Up
EXTD=YEAR: 1967
EXTT0=
EXTT1=
EXTT2=
EXTT3=
EXTT4=
EXTT5=
EXTT6=
PLAYORDER=
